<svg id="Layer_1" data-name="Layer 1" xmlns="http://www.w3.org/2000/svg" viewBox="0 0 582.63 101.45"><defs><style>.cls-1{fill:#005cf6;}</style></defs><title>COINBASE</title><path class="cls-1" d="M405,397.15c-.54,2.9-1,5.08-1.41,7.57h-13.1V305.33h14.29v38.75c11.58-10.24,23.33-13.23,35.33-8.23A43.49,43.49,0,0,1,457,349.23c9.4,12.31,7,35.69-3.64,46.9C441.42,408.77,426.25,409.26,405,397.15Zm42.84-26.82c.12-13.23-8.77-23.13-21-23.41-12.5-.29-22.38,9.64-22.69,22.79-.3,13,9.48,23.4,22,23.47C438.19,393.25,447.71,383.22,447.82,370.33Z" transform="translate(-108.45 -305.09)"/><path class="cls-1" d="M688.89,384.3c-1.74,12.31-17.46,23.6-35.58,22.12-18.32-1.5-30-12.71-33.48-32.69-2.47-14.38,6.65-30.87,20.38-36.84,16.35-7.1,34.76-2.64,44.61,10.84a25.87,25.87,0,0,1,2.71,4.59c7.08,15.76,4,20.75-12.76,20.71-11,0-21.93.21-32.88,0-6.83-.14-7.14,3-4.9,8.09,5.48,12.42,23.2,17.36,32.72,7.9C675.74,383,681.62,383.8,688.89,384.3Zm-14.58-21.83c-1.15-10.51-8.58-16.49-19-16.15-10.15.33-17.37,6.71-17.73,16.15Z" transform="translate(-108.45 -305.09)"/><path class="cls-1" d="M475.32,355.85a22,22,0,0,1,17-20.53,57.14,57.14,0,0,1,13.6-1.53c19,.13,28,9.33,28,28.35,0,6.88.27,13.78-.09,20.64-.29,5.71.47,10.17,7.76,10.09v10.94c-11.4,3.08-15.26,1.64-22.34-8.83-6.86,9.35-16.28,12.59-27.35,11.19-12.22-1.55-19.55-8.78-19.76-19.31s6.89-18.57,18.55-20.8c6-1.15,12-2.05,18-3.12,4.77-.85,10.13-2.62,8.92-8.16-.75-3.47-5.44-8.37-8.58-8.54-5.57-.3-13.58.74-16.46,4.43C487.42,357.22,482,355.88,475.32,355.85Zm43.31,15.51c-7.31,1.38-14,2.35-20.52,4a19.73,19.73,0,0,0-8.5,4.52c-4.39,4.2-3.11,11,2.52,13,7.33,2.63,14.69,1.82,20.81-3.33C518.7,384.76,519.44,378.17,518.63,371.36Z" transform="translate(-108.45 -305.09)"/><path class="cls-1" d="M189.06,369.33c.36-21.19,16-36.11,37.47-35.64s37.12,16.74,36.39,37.94c-.67,19.69-17.06,35-37.28,34.75C203.41,406.13,188.7,391.23,189.06,369.33Zm58.42,1c.07-13.07-9.62-23.37-22-23.33-12.07,0-21.61,10-21.76,22.81S213.13,393,225,393.18C237.66,393.38,247.41,383.46,247.48,370.33Z" transform="translate(-108.45 -305.09)"/><path class="cls-1" d="M310.11,404.61c0-22.16-.08-43.27.15-64.37,0-1.64,2.25-4.68,3.33-4.62a38.83,38.83,0,0,1,10.87,2.5c.87.31,1,2.61,1.85,4.92,7.43-7,15.63-10.06,25.19-9.25,12.15,1,22,8.68,22.82,20.75,1.11,16.4.27,32.94.27,50h-14c0-11.57.11-23.2-.06-34.83a53.1,53.1,0,0,0-1.4-11.23c-1.75-7.47-7.15-10.94-14.41-11.38s-13.35,2.16-16.32,8.92A41.38,41.38,0,0,0,325,370.62c-.49,11.14-.15,22.32-.15,34Z" transform="translate(-108.45 -305.09)"/><path class="cls-1" d="M549.46,384.74c7-.16,13.07-2,17.89,5.38,3.8,5.79,19.59,6.29,24.84,1.71,1.84-1.6,3.85-5.35,3.15-7-1.22-2.87-4.09-6.05-7-7-5.47-1.84-11.42-2.35-17.21-3.16-12.81-1.79-19.57-8.15-19.91-19-.36-11.26,6-19,18.9-20.72a67.12,67.12,0,0,1,22.57.95c8.86,1.93,14,8.52,15.31,18.22-6.65.51-12.27,1.48-17.36-4.75-4.53-5.55-12.09-5.52-18.43-2.91-2.79,1.15-5.81,5.22-6,8.12-.13,2.21,3.69,5.95,6.43,6.78,6.76,2,14,2.45,20.89,4.11,11.06,2.67,17.12,10,16.84,19.53-.3,10.26-7.3,18.51-18.47,20a87.47,87.47,0,0,1-21.93.13C558.65,403.82,552.39,397.26,549.46,384.74Z" transform="translate(-108.45 -305.09)"/><path class="cls-1" d="M179.57,359.89c-8.32,1.43-14.75,1.31-20.11-6.7-5-7.44-16.78-8-25.14-3.28-8,4.53-12.52,16.09-9.95,26.07,2.28,8.85,7.51,14.81,16.93,16.49,8.65,1.54,15.89-.94,20.58-8.3S173,380.47,179,380c-1.32,15.57-16.22,26.64-34.89,26.39-19.59-.27-34.4-14.71-35.56-34.66a35.79,35.79,0,0,1,30.88-37.59C159.44,331.43,175.85,341.74,179.57,359.89Z" transform="translate(-108.45 -305.09)"/><path class="cls-1" d="M294.17,404.63H279.72v-55.5c-5.78-.84-11.57-1.43-9.91-9.17.11-.5-.07-1.14.19-1.5,4.93-6.93,12-2,18-2.95,1.77-.28,5.84,2.81,5.87,4.41C294.31,361.21,294.17,382.51,294.17,404.63Z" transform="translate(-108.45 -305.09)"/><path class="cls-1" d="M297.18,315c-.88,6-4.56,9.1-10.32,9-5.94-.15-9.37-3.54-9-9.78s4.21-9.31,9.92-9.12S296.62,309.22,297.18,315Z" transform="translate(-108.45 -305.09)"/></svg>