<svg id="Layer_1" data-name="Layer 1" xmlns="http://www.w3.org/2000/svg" viewBox="0 0 579.28 506.46"><defs><style>.cls-1{fill:#0a2135;}.cls-2{fill:#fbe353;}.cls-3{fill:#126ea9;}.cls-4{fill:#f77056;}.cls-5{fill:#4e95c3;}</style></defs><title>TravelsLogo</title><path class="cls-1" d="M526.35,459.14l.57,3.92a100.31,100.31,0,0,0,4.44,24.52c.07,5.33,2.09,5.75,6,2.6s8.2-6.09,12.38-9c18.75-13.2,38-13,57.69-2.17,19.5,14.32,36.29,31.18,48.66,52.13,1.75,3,2.81,6.35,4.08,9.58.72,1.81.44,3.24-2,3.29l-.2-.22-.17.27-7.37,1.43a18.86,18.86,0,0,0-8.8-1.75q-57.35.09-114.7.09c-29.24-.11-58.48-.28-87.73-.3q-83.16-.06-166.33,0c1.39-1.17,3.8.46,4.82-1.74,10.2-1.27,20.46-2.13,30.56-3.93,15.58-2.78,31.72-3.69,45.84-12,8.31-4.9,15.45-11.91,25.33-13.94,2.46-.5,2.47-2.35,2.46-4.29-.06-26.26.06-52.52,1.23-78.76.16-3.42-1-4.38-4.31-4.46-2.17-.05-5.41,1.92-6.57-1.76-1-3.2,2.79-3.39,5.08-5.76-4.85-.42-8.09-.85-11.44,1.74-2.9,2.24-6.5,3.65-9.93,5.12-2.6,1.11-5.77,2-7.73-.71-2.47-3.4,2.48-3.59,4-6.12-8.25-1.77-13.38,4.91-20.06,5.45-1.37-4.41.47-6.51,4.25-8.3,13.31-6.33,26.5-12.91,39.62-19.64,3.33-1.7,8.38-2.54,6.73-8.56-.27-1,.89-2.22,2.32-2a2,2,0,0,1,1.59,2.62c-1.31,4.49,1.92,5.6,4.91,7.08,14.06,6.93,28,14,42.18,20.8,4,1.9,5.15,4.24,3.57,8.16-6.8-.51-11.81-7.81-20.85-5.18,2.9,1.93,6.73,2.26,5.16,5.48-1.41,2.89-4.72,2-6.95,1.29-3.51-1.17-6.72-3.23-10.09-4.84s-6.57-3.7-10.59-2c.21,2.26,4.35,2,3.1,4.66-1.15,2.48-3.83,2.22-6.15,2.24-4-2.06-4.77.07-4.72,3.54.15,9.89.23,19.79.33,29.69.07.52.13,1,.2,1.55-.46,2-1.23,4.09.48,6,.13,13.76.34,27.52.35,41.28,0,4.26.35,7.31,6,6.69,5-.54,11.59,1,14.3,2.7,7.14,4.55,14,1.15,21.09,3.46-4.06-8.51-7.5-10.22-16.75-9.15-1.15.13-2.74-1-1.78-2,4.4-4.55-.93-5.05-2.7-7-1.36-1.48-4-2.46-3.22-4.86.69-2.15,3.32-.82,4.94-1.53,3.92-1.72,9.22,1.36,12.22-3.34,6-9.41,13-18.18,18.23-28.11,2.57-1.59,2.65-6.51,7.1-5.55a72.51,72.51,0,0,0,22.19,1.19c4.13-.39,1.6,2,1.27,3.37-12.75,13.53-9.89,30-8.77,46.2.26,3.7,3.69,5,6.22,5.9,2.93,1.09,3.34-2.54,4.29-4.35,7.82-14.88,11.2-30.91,11.9-47.6.1-2.73.19-5.47.29-8.2a223.51,223.51,0,0,0-22.06-105.49c-8.4-17.54-19.23-33.5-33.78-46.68-.27-.83-.74-1.39-1.71-1.3l.18.08c-9.44-11.69-21.66-20-34-28.14-.71-4.69-5-1.28-7-3.06-2.3-5.11-7.3-5.73-12-8a20.35,20.35,0,0,0,2.52,8.64c-.11,1.14-.08,2.21,1.2,2.75a73.72,73.72,0,0,0,10.69,20.93c3.57,6.62,8.85,11.83,15.79,17.91L394,310.29a29.94,29.94,0,0,0,9.68,7c4.12,1.68,3.25,3.15.59,5.08,5.88,3.32,12.19,4.68,18.92,5.17-1.29,1.8-4.91,3.7.25,4.68,2.07.39,4.13.84,6.19,1.29,1.33.3,3,.4,3,2.27s-1.74,1.89-3.11,2c-12.57.93-25,.8-37-3.92-16.32-6.41-26.74-17.58-29.3-35.33-.63-8.89,1-17.66,1.93-26.48-4,6.46-8.31,12.57-9.57,20-4.38,9.41-5.78,19.45-5.95,29.87-2.89-.49-3-4.61-6.73-4-.21,2.56-.77,5.06.66,7.78,1.11,2.1.9,6.52.24,6.56-6.93.46-1.8,4.48-1.57,6.12.37,2.63,2.25,5.05,3.51,7.54.6,1.19,2.1,3.19.62,3.57-7.33,1.91-1.12,4.84-.61,7.1.74,3.31,3.58,5.91,4,10.67-20.74-18.23-35-38.21-31.12-66.63,5-17.7,16.88-29.38,33.07-37.47-16.34,3.09-30.65,10.22-43.73,20.25-1.16-3.91,1.88-6.53,1.83-10.45-7,5.67-11.8,12.1-14.45,20.59-.82-2.48-1.55-4.67-2.41-7.28-1,1.1-1.4,1.65-1.9,2.11-4.55,4.18-.65,14.93-11.24,14.53-.26,0-.49,1.68-.88,2.51-1.17,2.52-2.42,5-3.64,7.51-1.16-17.79,1-34.79,10.84-49.68,4.07-6.18,7.91-13,15.44-16.35,13.49-6,27.15-8.25,41.44-3.34,1.5.51,2.83,1.84,4.33,0s-.42-3.24-1.17-4.08c-5.26-6-9.15-12.83-13.4-19.45-4.42-16.43-2.9-31.93,7.25-46,9.06-12.58,21-21.52,35.17-27.69l.13-.18c-.16,5.31-5.51,7.72-7.1,12.58h6.08a16.76,16.76,0,0,1-1.39,1.78c-2.56,2.35-5.3,4.51-7.65,7.05-1.29,1.38-3.62,2.78-2.51,5.21,1.28,2.79,3.71-1.39,5.44.69-2.83,3.32-5.9,6.49-7.51,10.61-.79,2-3.36,4.07-1.47,6.23,2.2,2.51,3.45-2.3,6.23-1.3-1.35,6.69-2.91,13.42-2.54,20.33,0,.55,0,1.12,0,1.69.07,2.06-.43,4.18.74,6.09.18,8.05.94,16,4.27,23.68l4-24.69c8.65-25.46,27.51-37.92,54.87-36a88.67,88.67,0,0,1,35.7,10.15c-3.4,2.16-6.47.76-9.33,1.25-1.75.3-4.08-.78-5.13,1.17s2.94,2,2.15,4.59c-7-1.08-14.26-3.1-22.18,0l8,3.27c-7.87.64-15.3,1.66-23.5,6.15l12.05,2.36c-7.17,2.94-12.53,5.6-17.39,9.13-7.8,3.73-12.21,11.1-17.91,17-3.8,3.94-8.11,7.86-10.23,15,15.82-13.08,31.3-23.54,51.74-18.86s31,19.19,37.3,37.87c.42,2.21,2,4.15,1.48,6.57-3.65,0-7.49,1.65-10.77-1.29-1.49-2.29-2.73-4.86-4.62-6.76-.7-.7-2.61-3.86-4.24-.85-2,3.78-2.84-.93-4.3-.38-2.54-5.15-6.21-8.72-12.35-9.48-.08,2.43,3.13,3.51,1.62,5.25s-3.39.05-5.1-.64c-17.12-6.87-34.76-5-52.46-2.86l25.5,10.58,10.81,5.23c19.74,13,37.15,28.61,51.48,47.51,18,26.38,29.92,55.5,38.08,87.68,4-12.5,7.45-23.4,10.91-34.3,10.77-25.22,23.19-49.48,41-70.65,9.9-8.92,19.35-18.41,31.44-24.85a80.62,80.62,0,0,0-16.76,1.48c-9.48,2-19.19,3.61-26.81,10.46-4.16,2.48-5-.61-5.28-4.17-4.77,3-7.18,7.17-10.41,11-.3-1.9-.5-3.22-.76-4.83-3.55,2.7-5.18,6.25-6.64,9.91-.42,1-.68,3.17-1.56,2.75-5.6-2.68-4.66,2.81-6.29,4.86-2.58,3.24-2.49,7.95-5.59,11,.87-16.4,5.36-31.52,14.49-45.14,13.11-15.88,29.87-21.54,54.41-10.4-.6-6.38-11.25-13.55-34.45-23.15,2.16-4.1,6.5-1,9.88-3.19-6.78-3.71-13.91-2.45-20.58-3.06-.88-2.31,3-1.9,1.65-4.2-6-.9-11.61,1.62-17.55,3.29,1.76-4.55,1.76-4.55-13.19-3.26,10.37-8,20.71-12.87,32.17-15.25,22.74-4.71,47.43,1.65,57.3,35.84.39,1.94.15,4.06,1.72,5.83,1.05-2.54.66-5,.3-7.39.39-6.32-1-12.43-2.09-18.58a55.58,55.58,0,0,0-6-16.63c1.69-2,4.78,1,5.53-2,.49-1.95-1.38-3.34-2.54-4.7a31.85,31.85,0,0,0-10.1-8.35h4.93c1.15.54,2.43,2.18,3.5.49.68-1.07-.85-1.87-1.78-2.5-3-4.1-7.83-5.54-12-8.11-.32-3.1,5-.22,3.73-2.74-2.1-4.11-6.25-6.52-10.67-8.44.48-.43.75-.88,1-.88,23.82.71,49.36,22.65,52.94,45.53,2,13-3.25,24.18-9.4,35.06-1,.59-2,1.73-1.2,2.46,1.25,1.16,2.15-.4,3-1.24,10.14-4.89,20.37-9.55,32-8.22,15.57,1.77,26.7,10.46,35,23.22,6.3,9.71,9.9,20.47,11.82,32.87-4.69-3-5.38-8.57-9.94-10.44-.25,1.47-.48,2.81-.8,4.72a10.82,10.82,0,0,1-2-2.33A37.68,37.68,0,0,0,670,289.83c-.93-1-2.08-2.41-3.42-1.14-.76.71,1.76,2.1-.1,3.72-4-2.88-6.75-7.4-11.3-9.72-.68-.51-1.42-1.19-2.16-.22s.36,1.48.74,2.16c.07,1.53,1.7,2.76.72,5-16.28-9.65-34.18-11.39-52.61-11.08,23.06,5.47,44,14.17,48.21,40.73,3.64,22.87-6,41.75-22.32,57.48l-.15.08c2.17-5.07,4.44-10.11,4.32-16.14l-5.45,2.54c3.34-7,6.76-13,5.77-20.36-2.44,1.63-2.43,5-5.76,5.61,2.06-7,3.56-13.83,1.32-21.7-2.48,2.91-2.08,6.52-5.17,8.29-2.59-17.77-11.3-32.46-22.53-45.9a1.86,1.86,0,0,0-2.74-.62l1.49,1.83c3.17,8,6.43,15.89,7,24.68.93,16-4.74,28.58-18.22,37.48a18,18,0,0,0-2.46,2.33c-12.48,4.56-25.06,8.4-39.81,5.82,3.9-1.52,6.59-3.13,9.45-3.55,4.46-.65-1.55-4.87,2.32-5.62a65.19,65.19,0,0,0,8.58-2.82c3.25-1.12,4.16-2.86,1.42-5.53,2.48-1.7,5.12-3.23,7.42-5.15,3.76-3.15-4.94-4.36-1.35-7.65,12.38-13.72,14.88-31.06,18.34-49.56a163.18,163.18,0,0,0-28.9,32.79c-20,28.84-31.4,60.9-35.51,95.65A198.9,198.9,0,0,0,526.35,459.14Zm-168.71-267a2,2,0,0,0-.51,3l1.78-1.88c.41-.7,1.51-1.44.42-2.22S357.91,191.34,357.64,192.18Zm93.11,312.37c3.33-1.94,4.71,3.08,7.57,2.25v-22c-7.83,11.25-9.13,14.84-7.49,19.87-6.3-1.68-11.47-.76-14.43,6h20C455.21,507.4,451.16,507.78,450.75,504.55Zm12.79,12.95c-3.18-4.77-19.25-6.06-28.43-2.63C444.26,522,453.81,518.08,463.54,517.5Zm-39.73-11c2,1.37,3.16,4.19,6,3.71,1.17-.19,1.33-2.24.8-3C428.86,504.6,426.28,506.3,423.81,506.54ZM363.29,173.9c-.6-.64-.78-1.65-1.65-1a17.38,17.38,0,0,0-1.86,2c.53.24,1.22.82,1.55.66A9.31,9.31,0,0,0,363.29,173.9ZM378,250l-1,.76c.15.17.34.51.44.48a6.53,6.53,0,0,0,1.14-.47Z" transform="translate(-110.9 -146)"/><path class="cls-2" d="M318.55,300.65c-3.84,28.42,10.38,48.4,31.12,66.63-.39-4.76-3.23-7.36-4-10.67-.51-2.26-6.72-5.19.61-7.1,1.48-.38,0-2.38-.62-3.57-1.26-2.49-3.14-4.91-3.51-7.54-.23-1.64-5.36-5.66,1.57-6.12.66,0,.87-4.46-.24-6.56-1.43-2.72-.87-5.22-.66-7.78,3.75-.61,3.84,3.51,6.73,4,.17-10.42,1.57-20.46,5.95-29.87,5-.78,7.31,1.65,7.64,6.44,2.56,17.75,13,28.92,29.3,35.33,12,4.72,24.45,4.85,37,3.92,1.37-.1,3.06-.07,3.11-2s-1.64-2-3-2.27c-2.06-.45-4.12-.9-6.19-1.29-5.16-1-1.54-2.88-.25-4.68-6.73-.49-13-1.85-18.92-5.17,2.66-1.93,3.53-3.4-.59-5.08a29.94,29.94,0,0,1-9.68-7l10.3,1.38c-6.94-6.08-12.22-11.29-15.79-17.91,5.45-.91,10.72.22,16.05,1.22,7.66,1.42,14.68,5.3,22.6,5.63l-.18-.08,1.71,1.3C443.24,315,454.07,331,462.47,348.51A223.51,223.51,0,0,1,484.53,454c-3.27,0-6.54.07-9.8-.06-29.18-1.15-58.16,3.28-87.3,3.18,0-9.22,0-18.45-.09-27.68,0-2.79.16-5.11,3.68-5.28,2.33,0,5,.24,6.16-2.24,1.25-2.67-2.89-2.4-3.1-4.66,4-1.68,7.27.44,10.59,2s6.58,3.67,10.09,4.84c2.23.75,5.54,1.6,6.95-1.29,1.57-3.22-2.26-3.55-5.16-5.48,9-2.63,14.05,4.67,20.85,5.18,1.58-3.92.41-6.26-3.57-8.16-14.14-6.76-28.12-13.87-42.18-20.8-3-1.48-6.22-2.59-4.91-7.08a2,2,0,0,0-1.59-2.62c-1.43-.25-2.59,1-2.32,2,1.65,6-3.4,6.86-6.73,8.56C363,401.13,349.79,407.71,336.48,414c-3.78,1.79-5.62,3.89-4.25,8.3,6.68-.54,11.81-7.22,20.06-5.45-1.53,2.53-6.48,2.72-4,6.12,2,2.71,5.13,1.82,7.73.71,3.43-1.47,7-2.88,9.93-5.12,3.35-2.59,6.59-2.16,11.44-1.74-2.29,2.37-6.08,2.56-5.08,5.76,1.16,3.68,4.4,1.71,6.57,1.76,3.34.08,4.47,1,4.31,4.46-1.17,26.24-1.29,52.5-1.23,78.76,0,1.94,0,3.79-2.46,4.29-9.88,2-17,9-25.33,13.94-14.12,8.33-30.26,9.24-45.84,12-10.1,1.8-20.36,2.66-30.55,3.93-12.81-.1-25.62-.14-38.44-.32-5.51-.08-10.83,1.86-13.76-6.76s-7.28-16.92-10.51-25.52c-1.56-4.16-4.37-8.39-3.35-13.34,7.76-.91,15.81.44,24-3.34-9.25-2.07-18-.52-26.5-1.51a296.1,296.1,0,0,1-3.48-33.3c-.64-14,4.64-27.62,2.2-41.66-.2-1.16.79-2.71,1.58-3.82,6.33-8.81,8.49-19.39,12.5-29.18,8.88-1.92,17.92-2,26.94-2.25,3.29.68,6.29,3.09,9.7,2.43,2.1-.4,5.55,2.8,6.36-1.91,32.22-2.72,64.55-3.61,97-4.84-5.26.73-9.28-3.41-14.1-3.46-14.71-.17-29.43.19-44.11-.51-12.32-.6-24.73,1.35-36.95-1.45,2.84-4.2,7-5.2,11.58-4.25,2.67.54,5.15,2,7.78,2.75.93.28,2.5.65,2.8-.94a3.35,3.35,0,0,0-1-2.36c-8-8.65-19.31-8.23-25.35,1.17-1.26,1.95-2.16,3.91-4.32,4.95l-12.83-.06c-4.17-2.36-7.91-5.6-12.85-6.44,2.53-3.62,4.9-7.37,7.61-10.85C260.76,328.82,286.78,310.58,318.55,300.65Z" transform="translate(-110.9 -146)"/><path class="cls-3" d="M527,543.79q57.35,0,114.7-.09a18.86,18.86,0,0,1,8.8,1.75c-12.92,4.26-26.45,5-39.79,6.79-16.48,2.15-33,4-49.48,6a14.94,14.94,0,0,0-7.69,2.65c4.31,4.73,10.48,4.72,15.52,7.05,2.62,1.22,7.43,1.17,7.09,4.47s-5,2.38-7.81,2.76c-24.4,3.3-49,4.31-73.55,4.53-5.29,0-12.83-.92-13.48,5.54-.68,6.9,6.85,7.56,12.39,8.36,10.19,1.46,20.43,2.6,30.59,4.25,2.75.45,7.17.25,7.45,3.88s-3.89,4.91-6.81,6.13c-13.51,5.68-27.73,8.21-42.28,9.29-6.72.5-13.5.82-21,2.92,3.25,2.32,5.78,4.11,8.22,5.84-2.33,3-5.73,3.49-9.28,3.66-8.88.43-17.76,1-26.64,1.31-2.53.1-5.84.26-6.21,2.56-.49,3,2.9,3.49,5.38,4.11,5,1.23,10,2.44,14.93,3.87,1.66.49,4.13.88,3.89,3.25-.19,1.81-2.38,2-3.92,2.47-7.23,2.19-14.73,2.75-22.19,3.27-39.77,2.77-79.53,2.91-119.24-1a125.08,125.08,0,0,1-13.8-2.47c-1.47-.31-3.52-.71-3.4-2.82.09-1.6,1.83-2.09,3.12-2.45,6.07-1.71,12.18-3.28,18.27-4.9,2-.53,4.91-.52,4.74-3.15-.19-3.12-3.31-2.7-5.53-2.71a250,250,0,0,1-37.78-2.66c-1.32-.21-2.91.07-3.68-1.79,2.38-3.37,7.32-2.48,10.36-6.13-6.49-2.85-13.22-2.51-19.67-3.11-13.56-1.27-26.94-3.15-39.69-8.22-1.09-.43-2.24-.74-3.27-1.27-2.84-1.48-7.06-2.54-6.47-6.33.52-3.41,4.84-3.25,7.66-3.69,9.94-1.55,19.94-2.71,29.92-4a31.18,31.18,0,0,0,4.84-.83c3.88-1.16,8.47-2.67,8.19-7.31-.3-4.84-5-5.66-9.14-5.72-19.2-.3-38.39-.81-57.53-2.44-7.69-.66-15.36-1.62-23-2.53-2.19-.26-5.38,0-5.66-2.67-.25-2.3,2.84-2.65,4.76-3.35,5.06-1.84,10.14-3.58,15.2-5.41,1.32-.48,2.78-1.13,2.78-2.74s-1.53-2.26-2.87-2.56c-5-1.09-10-2.29-15.11-3.05-16.41-2.48-33.06-3.55-49.13-8-2.54-.71-5.75-.49-7-3.7,2.32.06,4.64.16,7,.17l92.37.49a46.62,46.62,0,0,0,11.66,4.36c12.1,2.58,24.45,3.25,36.62,5.19,2.69.43,6.72-.19,7.26,2.81.67,3.72-4.14,2.65-6.13,4.35-1.35,1.15-4,1.25-3.93,3.5.07,2.91,3.08,2.81,4.82,3,9.24,1.21,18.49,2.7,27.86,2,4.74-.34,9.33.6,13.88,1.48s4.86,4,2.45,7.32c-1.87,2.54-4.82,3.45-8,3.74a74,74,0,0,0-11.71,1.75c-2,.51-5.29.22-5.38,3.4-.08,2.6,2.32,3.81,4.39,5,4.92,2.81,10.26,4.21,15.75,5.53S314,597.85,319,601c-.7,2.32-4.09,2.09-3.7,4.24.49,2.69,3.43,1.7,5.26,2.41,4.29,1.67,8.79.79,13.2,1,2.33.13,5.07-.2,5.55,2.93s-2.65,2.73-4.35,3.49c-3.05,1.36-6.63,1.75-9,4.86,2.64,2.12,5.39,2.29,8.09,2.87,9.48,2,19.13.68,28.63,1.59,15.19,1.45,30.17-.26,45.15-2.23,2.07-.27,5.48-.37,5.72-3.12.25-2.91-3.07-2.9-5.15-3.69-1.3-.49-2.69-.8-4-1.35-1.64-.71-4.11-1-3.82-3.38.32-2.65,2.83-1.89,4.55-1.92,6.65-.12,13.36.26,19.87-2.61-.59-2.24-4.16-2.75-3.12-5.17,1.13-2.63,3.94-1.89,6.21-2.11,9.11-.88,18-2.5,26-7.32,1.81-1.08,3.8-2.36,3.49-4.81s-2.76-2.39-4.42-2.77c-5.2-1.2-10.51-2-15.72-3.1-3.18-.69-6.75-1.31-6.33-5.93.45-4.86,4.22-3.86,7.39-4.31,13.37-1.89,27.08-.34,40.27-4,1.26-.35,3.16.33,3.55-1.45.47-2.11-1.59-2.54-2.93-3.35-2.85-1.72-6.38-2.45-9.33-6.06,9.63-2.76,18.54-3.7,27.46-4.74C507.66,549.83,518,549.46,527,543.79Z" transform="translate(-110.9 -146)"/><path class="cls-4" d="M318.55,300.65c-31.77,9.93-57.79,28.17-78.25,54.36-2.71,3.48-5.08,7.23-7.61,10.85-3.46-.16-5.88,1.85-8.24,4-23.3-1-46.59-2.07-69.89-2.8-5-.16-6.39-1.52-4-6,4.2-7.92,6.34-17,13.19-23.41,2.71-2.85,6.87.41,10-2.57-4.59-1.52-6.26-4.39-4.27-9,3.87-8.9,14.51-15.25,23.33-11,6.08,2.94,12.9,4.86,21.52,3.13-10.87-3.65-19.29-9-27.95-13.85,4.37-8.69,11.75-14.88,18.51-21.44a236.4,236.4,0,0,1,37.23-29.19c2.31-.45,5.66,1.54,6.35-2.71,6.42-5.83,14.41-8.82,22.16-12.23,2.68,0,5.36.14,8-.06,1.11-.08.43-.68-.11-1s-.82-.34-1.23-.5c2.29-4,6.62-4.48,10.31-5.84,14.63-5.4,29.52-9.87,45.13-11.4,4.25,6.63,8.14,13.5,13.4,19.46.75.84,2.79,2.15,1.17,4.08s-2.83.47-4.33,0c-14.29-4.91-27.95-2.69-41.44,3.34-7.53,3.37-11.37,10.17-15.44,16.35-9.82,14.89-12,31.89-10.84,49.68,1.22-2.5,2.47-5,3.64-7.51.39-.83.62-2.52.88-2.51,10.59.4,6.69-10.35,11.24-14.53.5-.46.91-1,1.9-2.11.86,2.61,1.59,4.8,2.41,7.28,2.65-8.49,7.5-14.92,14.45-20.59,0,3.92-3,6.54-1.83,10.45,13.08-10,27.39-17.16,43.73-20.25C335.43,271.27,323.57,283,318.55,300.65Z" transform="translate(-110.9 -146)"/><path class="cls-4" d="M222.05,383c-4,9.8-6.17,20.38-12.5,29.19-.79,1.11-1.78,2.66-1.58,3.82,2.44,14-2.84,27.62-2.2,41.66a296.1,296.1,0,0,0,3.48,33.3c-23.87-.16-47.74-.26-71.56-2.05-3.1-.23-4.26-1.5-4.74-4.7-4.72-31.58-.9-62.47,6.9-93.11,1.13-4.44,3.39-5.79,7.86-5.88,16.39-.34,32.76-1.09,49.14-1.73,3.26-.12,6.58,0,9.63-1.37,4.14-1.33,8.31.16,12.48.14h-.16l3-.51A1.85,1.85,0,0,1,222.05,383Z" transform="translate(-110.9 -146)"/><path class="cls-4" d="M527.13,409.24c4.11-34.75,15.47-66.81,35.51-95.65l10.56,16.77c-3.59,3.29,5.11,4.5,1.35,7.65-2.3,1.92-4.94,3.45-7.42,5.15,2.74,2.67,1.83,4.41-1.42,5.53a65.19,65.19,0,0,1-8.58,2.82c-3.87.75,2.14,5-2.32,5.62-2.86.42-5.55,2-9.45,3.55,14.75,2.58,27.33-1.26,39.81-5.82,5.56,4.28,6.47,11.08,8.72,17,5.06,13.23,8,27,10.62,41,1.82,9.85,3.13,19.63,4.2,29.55.47,4.37-.58,6-5,6.05-22.89.13-45.69,3-68.61,2.5-.49-5.26-.49-10.62-1.56-15.76C531.76,426.46,531.56,417.31,527.13,409.24Z" transform="translate(-110.9 -146)"/><path class="cls-4" d="M520.79,277.3c-9.13,13.62-13.62,28.74-14.49,45.14,3.1-3.08,3-7.79,5.59-11,1.63-2.05.69-7.54,6.29-4.86.88.42,1.14-1.71,1.56-2.75,1.46-3.66,3.09-7.21,6.64-9.91.26,1.61.46,2.93.76,4.83,3.23-3.83,5.64-8,10.41-11,.32,3.56,1.12,6.65,5.28,4.18,5.24,3.18,8.63,8.09,12.13,12.9-17.77,21.17-30.19,45.43-41,70.65-2.91-4.46-5.65-9-8.76-13.36-11.2-15.55-23.78-29.74-40.23-40-14.33-18.9-31.74-34.47-51.48-47.51,3.24-.15,6.48-.35,9.72-.45,11.81-.33,23.59,2.29,35.42.36,3.28,2.94,7.12,1.3,10.77,1.29Z" transform="translate(-110.9 -146)"/><path class="cls-4" d="M213,544.07l-92.37-.49c-2.33,0-4.65-.11-7-.17h33c-3.59-12.83-7.1-24.74-10.21-36.75-2.13-8.27-1.84-8.35,6.73-9,22.83-1.77,45.71-1.56,68.58-1.79-1,5,1.79,9.18,3.35,13.34,3.23,8.6,7.6,17,10.51,25.52s8.25,6.68,13.76,6.76c12.82.18,25.63.22,38.44.32-1,2.2-3.44.57-4.84,1.75Z" transform="translate(-110.9 -146)"/><path class="cls-4" d="M468,269.19c-6.28-18.68-17-33.22-37.3-37.87s-35.92,5.78-51.74,18.86c2.12-7.1,6.43-11,10.23-15,5.7-5.92,10.11-13.29,17.91-17,5.91,3.76,12.92,3.5,19.4,5.1a240.62,240.62,0,0,1,84.1,39c.72.53,1.66.88,1.28,2.89-12,.43-24.32.82-36.59,1.32C472.6,266.65,469.44,265.71,468,269.19Z" transform="translate(-110.9 -146)"/><path class="cls-1" d="M186.31,304.4c8.66,4.87,17.08,10.2,27.95,13.85-8.62,1.73-15.44-.19-21.52-3.13-8.82-4.27-19.46,2.08-23.33,11-2,4.58-.32,7.45,4.27,9-3.08,3-7.24-.28-10,2.57-8.63-2.84-16.4-7.42-24.28-11.83-7.61-4.25-14.42-2.16-20.42,3.5-2.48,2.35-4.71,5-8.13,8.58,1.7-8.48,4.48-14.74,8.9-20.18,4.12-5.07,9.51-5.92,15-2.85,4.87,2.69,9.19,6.37,14,9.09,1.11.63,4.39,6.19,5.31-.57a.7.7,0,0,1,.58-.22c9.41,3.88,10.47-5.78,14.92-9.56C174.73,309.34,179.09,304.47,186.31,304.4Z" transform="translate(-110.9 -146)"/><path class="cls-4" d="M607.45,479c-19.66-10.84-38.94-11-57.69,2.17-4.18,2.95-8.39,5.86-12.38,9s-6,2.73-6-2.61c1.18-1.35,1-3,1.08-4.64.84-16.28,1.77-17.2,17.82-17.77,17.5.48,35,1,52.5,1.41,4.82.11,7,1.94,5.72,6.89C608,475.27,607.79,477.13,607.45,479Z" transform="translate(-110.9 -146)"/><path class="cls-1" d="M277.24,237.32c.41.16.83.31,1.23.5s1.22.87.11,1c-2.66.2-5.34.06-8,.06-1.85-.84-3.65-1.83-5.57-2.5-7.9-2.73-15.5.52-19,8.22-1.23,2.72-2.72,5.92,2.37,6.51-.69,4.25-4,2.26-6.35,2.71a40.76,40.76,0,0,1-15.45-6.05c-11.49-7.19-16.06-6.34-25.46,3.8-.57.62-1.28,1.13-3.47,3,1.42-4,2.1-6.16,3-8.27,5.39-12.92,11.64-14.71,23.07-6.64,10.34,7.29,12.11,7.07,20.67-2.63,9.68-10.95,11.94-11.32,24.92-4C271.94,234.44,274.6,235.87,277.24,237.32Z" transform="translate(-110.9 -146)"/><path class="cls-1" d="M221.77,381.79l-3,.51q2.82-6.24,5.65-12.47c2.36-2.12,4.78-4.13,8.24-4,4.94.84,8.68,4.08,12.85,6.44,4.26,5.35,8.55,2.07,12.83.06,2.16-1,3.06-3,4.32-4.95,6-9.4,17.39-9.82,25.35-1.17a3.35,3.35,0,0,1,1,2.36c-.3,1.59-1.87,1.22-2.8.94-2.63-.79-5.11-2.21-7.78-2.75-4.59-1-8.74,0-11.58,4.25-2.59,3.07-7.87,5.67-1.8,10.26-.81,4.71-4.26,1.51-6.36,1.91-3.41.66-6.41-1.75-9.7-2.43C236,371.16,230,371.39,221.77,381.79Z" transform="translate(-110.9 -146)"/><path class="cls-2" d="M527.13,409.24c4.43,8.07,4.63,17.22,6.45,25.93,1.07,5.14,1.07,10.5,1.56,15.76-3.46,2.19-9.49,1.65-8.79,8.24A199.11,199.11,0,0,1,527.13,409.24Z" transform="translate(-110.9 -146)"/><path class="cls-2" d="M550.26,465.16c-16,.57-17,1.49-17.82,17.77-.08,1.62.1,3.29-1.08,4.64a100.14,100.14,0,0,1-4.44-24.51Z" transform="translate(-110.9 -146)"/><path class="cls-4" d="M371.83,216.13l-4,24.69c-3.33-7.67-4.09-15.63-4.27-23.68Z" transform="translate(-110.9 -146)"/><path class="cls-1" d="M219,382.29c-4.17,0-8.34-1.47-12.48-.14a5.5,5.5,0,0,0-2,.34c-1.23.72-.62,1.55.36,1.51C209.59,383.82,214.56,385.35,219,382.29Z" transform="translate(-110.9 -146)"/><path class="cls-4" d="M362.8,211.05c0-.57,0-1.14,0-1.69C363.56,209.94,363.47,210.5,362.8,211.05Z" transform="translate(-110.9 -146)"/><polygon class="cls-1" points="579.05 165.15 578.4 165.28 579 165.54 579.05 165.15"/><path class="cls-1" d="M627.8,376.74l0,.2s-.1-.16-.12-.14S627.8,376.74,627.8,376.74Z" transform="translate(-110.9 -146)"/><path class="cls-1" d="M375.1,146.36,375,146a2.31,2.31,0,0,0,.24.2Z" transform="translate(-110.9 -146)"/><polygon class="cls-3" points="546.97 398.01 547.14 397.75 547.33 397.97 547.16 398.33 546.97 398.01"/><path class="cls-5" d="M213,544.07l60-.54q83.18,0,166.34,0c29.25,0,58.49.19,87.73.3-9,5.67-19.34,6-29.43,7.21-8.92,1-17.83,2-27.46,4.74,2.95,3.61,6.48,4.34,9.33,6.06,1.34.81,3.4,1.24,2.93,3.35-.39,1.78-2.29,1.1-3.55,1.45-13.19,3.65-26.9,2.1-40.27,4-3.17.45-6.94-.55-7.39,4.31-.42,4.62,3.15,5.24,6.33,5.93,5.21,1.14,10.52,1.9,15.72,3.1,1.66.38,4.12.38,4.42,2.77s-1.68,3.73-3.49,4.81c-8,4.82-16.9,6.44-26,7.32-2.27.22-5.08-.52-6.21,2.11-1,2.42,2.53,2.93,3.12,5.17-6.51,2.87-13.22,2.49-19.87,2.61-1.72,0-4.23-.73-4.55,1.92-.29,2.42,2.18,2.67,3.82,3.38,1.28.55,2.67.86,4,1.35,2.08.79,5.4.78,5.15,3.69-.24,2.75-3.65,2.85-5.72,3.12-15,2-30,3.68-45.15,2.23-9.5-.91-19.15.43-28.63-1.59-2.7-.58-5.45-.75-8.09-2.87,2.4-3.11,6-3.5,9-4.86,1.7-.76,4.82-.34,4.35-3.49s-3.22-2.8-5.55-2.93c-4.41-.26-8.91.62-13.2-1-1.83-.71-4.77.28-5.26-2.41-.39-2.15,3-1.92,3.7-4.24-5.05-3.12-11.07-2.12-16.53-3.42s-10.83-2.72-15.75-5.53c-2.07-1.18-4.47-2.39-4.39-5,.09-3.18,3.39-2.89,5.38-3.4a74,74,0,0,1,11.71-1.75c3.19-.29,6.14-1.2,8-3.74,2.41-3.27,2.1-6.44-2.45-7.32s-9.14-1.82-13.88-1.48c-9.37.68-18.62-.81-27.86-2-1.74-.23-4.75-.13-4.82-3,0-2.25,2.58-2.35,3.93-3.5,2-1.7,6.8-.63,6.13-4.35-.54-3-4.57-2.38-7.26-2.81-12.17-1.94-24.52-2.61-36.62-5.19A46.62,46.62,0,0,1,213,544.07Z" transform="translate(-110.9 -146)"/><path class="cls-2" d="M440,463c-5.21,9.93-12.21,18.7-18.23,28.11-3,4.7-8.3,1.62-12.22,3.34-1.62.71-4.25-.62-4.94,1.53-.78,2.4,1.86,3.38,3.22,4.86,1.77,1.92,7.1,2.42,2.7,7-1,1,.63,2.16,1.78,2,9.25-1.07,12.69.64,16.75,9.15-7.06-2.31-14,1.09-21.09-3.46-2.71-1.73-9.34-3.24-14.3-2.7-5.69.62-6-2.43-6-6.69,0-13.76-.22-27.52-.35-41.28.1-1.89.19-3.79.29-5.69q22.67.27,45.32.55C435.74,459.8,438.59,460,440,463Z" transform="translate(-110.9 -146)"/><path class="cls-2" d="M465,322.07c16.45,10.28,29,24.47,40.23,40,3.11,4.32,5.85,8.9,8.76,13.36-3.46,10.9-6.93,21.8-10.91,34.3C494.93,377.57,483,348.45,465,322.07Z" transform="translate(-110.9 -146)"/><path class="cls-2" d="M484.24,462.2c-.7,16.69-4.08,32.72-11.9,47.6-.95,1.81-1.36,5.44-4.29,4.35-2.53-.95-6-2.2-6.22-5.9-1.12-16.16-4-32.67,8.77-46.19Z" transform="translate(-110.9 -146)"/><path class="cls-4" d="M427.16,300.61c-7.92-.33-14.94-4.21-22.6-5.63-5.33-1-10.6-2.13-16.05-1.22a74,74,0,0,1-10.7-20.93c5.08-1.08,10.24,1.3,15.31-.36C405.5,280.6,417.72,288.92,427.16,300.61Z" transform="translate(-110.9 -146)"/><path class="cls-4" d="M402.72,269.33l-25.5-10.58c17.7-2.17,35.34-4,52.46,2.86,1.71.69,3.65,2.3,5.1.64s-1.7-2.82-1.62-5.25c6.14.76,9.81,4.33,12.35,9.48-2.11,1.26-4.47.85-6.75,1.1C426.78,268.85,414.67,267.48,402.72,269.33Z" transform="translate(-110.9 -146)"/><path class="cls-2" d="M450.83,504.63c-1.64-5-.34-8.62,7.49-19.87v22c-2.86.83-4.24-4.19-7.57-2.25Z" transform="translate(-110.9 -146)"/><path class="cls-2" d="M463.54,517.5c-9.73.58-19.28,4.46-28.43-2.63C444.29,511.44,460.36,512.73,463.54,517.5Z" transform="translate(-110.9 -146)"/><path class="cls-4" d="M363.17,298.51c-.33-4.79-2.63-7.22-7.64-6.44,1.26-7.47,5.53-13.58,9.57-20C364.19,280.85,362.54,289.62,363.17,298.51Z" transform="translate(-110.9 -146)"/><path class="cls-2" d="M450.75,504.55c.41,3.23,4.46,2.85,5.63,6.05h-20c3-6.73,8.13-7.65,14.43-6Z" transform="translate(-110.9 -146)"/><path class="cls-4" d="M376.62,270.08a20.35,20.35,0,0,1-2.52-8.64c4.75,2.24,9.75,2.86,12,8Z" transform="translate(-110.9 -146)"/><path class="cls-4" d="M387.43,457.12l-.34.28h-.45c-.1-9.9-.18-19.8-.33-29.69-.05-3.47.73-5.6,4.72-3.54-3.53.17-3.73,2.49-3.69,5.28C387.45,438.67,387.41,447.9,387.43,457.12Z" transform="translate(-110.9 -146)"/><path class="cls-2" d="M423.81,506.54c2.47-.24,5.05-1.94,6.83.7.53.77.37,2.82-.8,3C427,510.73,425.83,507.91,423.81,506.54Z" transform="translate(-110.9 -146)"/><path class="cls-4" d="M386.84,458.94a.74.74,0,0,1,.77.28c-.1,1.89-.19,3.79-.29,5.68C385.61,463,386.38,461,386.84,458.94Z" transform="translate(-110.9 -146)"/><path class="cls-4" d="M378,250l.62.77a6.53,6.53,0,0,1-1.14.47c-.1,0-.29-.31-.44-.48Z" transform="translate(-110.9 -146)"/><path class="cls-4" d="M428.69,301.83l-1.71-1.3C428,300.44,428.42,301,428.69,301.83Z" transform="translate(-110.9 -146)"/></svg>